<svg width="381" height="393" viewBox="0 0 381 393" fill="none" xmlns="http://www.w3.org/2000/svg">
<path d="M102.55 313.345C102.55 313.345 70.2497 310.118 43.9119 271.724L43.9217 244.984L55.3798 222L99.1216 259.563L102.55 313.345Z" fill="#006B2C"/>
<path d="M43.9123 271.724C43.9123 271.724 42.707 200.474 106.31 169.222L122.451 200.322L142.396 111.339L63.4124 96.7802L78.4501 120.069C78.3722 120.116 4.0386 143.814 43.9123 271.724Z" fill="#00953A"/>
<path d="M138.169 60.8716C138.169 60.8716 154.557 34.245 201.012 30.5617L226.736 44.2492L241.052 65.576L186.688 84.6934L138.169 60.8716Z" fill="#006B2C"/>
<path d="M201.013 30.562C201.013 30.562 264.272 63.7659 261.292 134.47L226.163 133.605L294.912 193.883L345.569 131.772L317.872 133.693C317.935 133.708 332.669 57.2359 201.013 30.562Z" fill="#00953A"/>
<path d="M330.562 205.934C330.562 205.934 347.491 232.275 330.652 275.574L307.126 292.679L281.655 296.208L287.991 239.068L330.562 205.934Z" fill="#006B2C"/>
<path d="M330.652 275.574C330.652 275.574 273.21 317.837 210.661 284.271L226.69 253.124L142.419 288.484L176.514 361.082L186.802 335.387C186.761 335.437 249.417 382.072 330.652 275.574Z" fill="#00953A"/>
<path d="M229.13 203.89C224.074 223.19 204.277 234.763 184.909 229.692C165.542 224.621 153.903 204.867 158.958 185.567C164.014 166.267 183.811 154.694 203.179 159.765C222.546 164.836 234.186 184.59 229.13 203.89Z" fill="#00953A"/>
</svg>
