<svg width="366" height="44" viewBox="0 0 366 44" fill="none" xmlns="http://www.w3.org/2000/svg">
<path d="M237.011 37.4907V42.3955H222.376V37.4907H226.766V17.3263H217.187V42.3955H207.075V37.4907H211.466V17.19H207.075V12.2852H252.311V17.19H247.92V37.3544C249.384 37.6269 250.847 37.3544 252.311 37.4907V42.3955H242.465V17.3263H232.62V37.4907H237.011Z" fill="white"/>
<path d="M295.55 20.1874C296.083 27.681 295.684 35.0382 295.817 42.3955H285.705V37.4907H290.096V17.3263H285.705V12.5577C285.971 12.2852 286.237 12.2852 286.503 12.2852C290.096 12.2852 293.688 12.2852 297.413 12.2852C298.078 12.2852 298.344 12.4214 298.611 13.1026C301.005 18.4162 303.533 23.8661 305.928 29.1797C306.327 29.9971 306.593 31.0871 306.859 31.9046C306.992 32.3133 307.126 32.722 307.658 32.5858C310.186 25.6373 313.645 19.0975 316.572 12.2852H328.546V17.0538C327.216 17.4625 325.619 16.9175 324.155 17.3263V37.2182C325.619 37.4907 327.082 37.2182 328.546 37.4907V42.3955H318.701C318.701 34.902 318.567 27.4085 318.834 19.9149C318.701 19.9149 318.568 19.9149 318.434 19.7787C317.636 21.4136 316.838 23.1848 316.04 24.8198C314.044 29.1797 312.048 33.5395 310.053 37.8994C309.786 38.4444 309.52 38.8531 308.855 38.7169C308.722 38.7169 308.456 38.7169 308.323 38.7169C305.529 39.3981 304.065 38.0356 302.868 35.3107C300.872 30.4059 298.611 25.6373 296.349 20.8687C296.349 20.5962 296.349 20.1874 295.55 20.1874Z" fill="white"/>
<path d="M164.634 20.4599C163.57 21.1411 163.037 22.3674 162.372 23.3211C158.381 29.4522 154.389 35.447 150.531 41.578C150.132 42.2593 149.6 42.5318 148.802 42.5318C145.741 42.5318 142.681 42.5318 139.488 42.5318V37.6269C140.819 37.3544 142.415 37.6269 143.879 37.3544V17.3263H139.488V12.4214H149.467C149.334 19.9149 149.733 27.2722 149.201 34.6295C149.334 34.6295 149.467 34.6295 149.6 34.7657C150.265 33.6758 151.063 32.5858 151.729 31.4958C155.72 25.3648 159.711 19.2337 163.703 13.1026C163.969 12.6939 164.102 12.2852 164.634 12.2852C167.96 12.2852 171.286 12.2852 174.746 12.2852V17.19C173.415 17.4625 171.952 17.19 170.355 17.4625V37.4907C171.819 37.7631 173.149 37.4907 174.746 37.7632C174.879 39.3981 174.879 40.8968 174.746 42.668H164.767C164.634 35.1745 164.235 27.8172 164.634 20.4599Z" fill="white"/>
<path d="M355.289 16.1002C355.556 14.874 355.289 13.6478 355.556 12.4215H365.135V17.3264H360.744V37.627H365.135V42.6681H355.556C355.289 41.4419 355.689 40.2157 355.289 38.8532C354.491 39.1257 354.358 39.807 353.826 40.2157C350.234 43.6219 345.843 44.3031 341.32 42.9406C335.466 41.1694 332.139 36.8096 331.208 30.5422C330.41 25.3649 331.341 20.5963 334.667 16.5089C338.659 11.6041 345.71 10.1054 351.298 13.1028C352.496 13.6478 353.294 14.6015 354.225 15.419C354.491 15.5552 354.624 15.9639 355.289 16.1002ZM355.422 27.2723C355.422 26.1824 355.423 24.8199 355.023 23.5937C354.092 20.0513 350.899 16.9177 347.573 16.5089C343.581 15.9639 340.388 17.3264 338.126 20.8688C336.264 23.8662 336.131 27.2723 336.929 30.6785C338.26 37.3545 346.242 40.4882 351.564 36.4008C354.225 34.2209 355.556 31.2235 355.422 27.2723Z" fill="white"/>
<path d="M74.2946 37.4906V42.3955H62.9857C62.7196 41.033 62.8527 39.8068 62.8527 38.5806C62.8527 37.7631 62.7196 37.0819 62.1874 36.5369C60.4578 34.357 58.7282 32.0408 57.1317 29.8609C56.8656 29.4521 56.5995 29.3159 56.0673 29.3159C55.0029 29.3159 53.8055 29.3159 52.6081 29.3159V42.3955H42.4966V37.4906H46.8871V17.3262H42.4966V12.4214H52.475V24.2748C53.8055 24.5473 55.0029 24.411 56.2003 24.411C56.5995 24.411 56.7325 24.0023 56.9986 23.7298C58.4621 21.8223 59.9256 20.0512 61.3892 18.1437C61.7883 17.5987 61.9213 17.0537 61.9213 16.3725C61.9213 15.1463 61.7883 13.7838 62.0544 12.4214H72.6981V17.3262C71.5007 17.3262 70.3032 17.3262 69.1058 17.3262C68.3076 17.3262 67.7754 17.5987 67.2432 18.28C65.3805 20.7324 63.3848 23.0486 61.3892 25.3647C60.857 26.046 60.857 26.4547 61.3892 27.1359C63.917 30.4058 66.578 33.6758 69.1058 36.9457C69.505 37.4906 70.0372 37.7631 70.7024 37.6269C71.8998 37.4906 73.0972 37.4906 74.2946 37.4906Z" fill="white"/>
<path d="M38.6376 39.1255C36.908 40.7605 34.9124 41.8504 32.7836 42.3954C28.3931 43.7579 23.8695 43.8941 19.7451 41.7142C14.9554 39.398 12.4275 35.3106 11.4962 29.8608C10.831 25.7734 11.3632 21.9585 13.4919 18.4161C16.0198 13.92 20.0112 11.7401 24.9339 11.4676C29.0583 11.1951 32.7836 12.2851 35.8437 15.2825C38.7707 18.0074 39.9681 21.686 40.1012 25.6372C40.1012 26.8634 40.2342 27.9533 39.9681 29.3158H16.685C17.2172 32.4495 18.5477 34.7656 20.8095 36.4006C24.0026 38.7168 29.1914 39.6705 35.8437 35.4469C36.775 36.5368 37.7063 37.6268 38.6376 39.1255ZM34.3802 24.5472C34.3802 21.686 33.3158 19.6423 31.1871 18.1436C27.8609 15.8275 24.4017 15.6912 20.9425 17.7349C18.5477 19.2336 17.2172 21.4135 16.8181 24.5472H34.3802Z" fill="white"/>
<path d="M283.044 29.3158H260.16C259.761 29.8608 259.894 30.2695 260.027 30.6782C261.624 36.4006 267.079 39.2617 272.401 38.1718C274.662 37.763 276.924 36.8093 278.92 35.3106C279.851 36.5368 280.783 37.763 281.714 38.9893C280.383 40.2155 278.92 41.1692 277.323 41.7142C272.268 43.7579 267.212 44.0304 262.289 41.4417C257.766 39.1255 255.371 35.0381 254.439 29.997C253.641 25.2284 254.439 20.8685 257.233 17.0537C259.894 13.375 263.62 11.7401 267.877 11.3313C271.336 11.0588 274.529 11.8763 277.456 14.0563C281.182 16.9174 282.778 20.8685 283.044 25.5009C283.31 26.7271 283.31 27.9533 283.044 29.3158ZM277.589 24.5472C277.989 20.7323 274.13 16.7812 270.006 16.5087C263.753 15.9637 260.16 20.8685 260.16 24.5472H277.589Z" fill="white"/>
<path d="M106.228 27.9536C105.961 33.676 103.833 38.9896 97.9787 41.7145C90.9273 45.1206 81.2149 42.9407 77.6226 34.4935C74.8287 27.8174 76.1591 18.6889 82.1462 14.3291C85.7385 11.7404 89.7298 10.9229 93.9873 11.6041C98.3779 12.2854 101.704 14.4653 104.099 18.4164C105.562 21.1413 106.228 24.1388 106.228 27.9536ZM100.64 26.8637C100.64 26.1825 100.64 25.0925 100.24 23.8663C99.0431 19.9151 96.6482 17.3265 92.7899 16.6452C88.7985 15.964 85.4724 17.3265 83.2106 21.0051C81.3479 24.1388 81.2149 27.5449 82.0132 31.0873C83.4767 37.4909 90.7942 40.4883 95.983 36.9459C99.3092 34.6297 100.773 31.3598 100.64 26.8637Z" fill="white"/>
<path d="M203.749 24.5474H198.161C198.161 23.0487 198.028 21.55 198.161 20.1876C198.294 19.0976 197.762 18.5526 196.964 18.1439C191.642 14.4652 184.191 17.4626 182.595 23.8662C181.53 28.2261 181.929 32.3135 185.122 35.7196C187.517 38.3083 190.577 38.8533 193.904 38.3083C196.298 37.8995 198.294 36.5371 200.024 34.4934C201.221 35.5834 202.419 36.6733 203.749 37.7633C202.285 39.807 200.556 41.3057 198.294 42.1232C192.44 44.4393 186.852 44.1669 181.929 39.9432C179.135 37.627 177.672 34.4934 177.007 30.951C176.341 26.8636 176.741 23.0487 178.603 19.3701C180.732 15.2827 184.058 12.8303 188.449 12.0128C193.105 11.0591 197.363 11.8766 201.354 14.7377C201.62 15.0102 201.886 15.2827 202.285 15.419C203.35 16.2364 204.015 17.3264 203.882 18.9614C203.616 20.5963 203.749 22.5037 203.749 24.5474Z" fill="white"/>
<path d="M136.029 24.5471H130.441C130.441 23.0484 130.441 21.5497 130.441 20.051C130.441 19.2335 130.175 18.6885 129.51 18.1435C124.454 14.7374 116.737 16.5086 115.007 24.1384C114.209 27.5445 114.475 30.6782 116.205 33.6756C118.334 37.3542 122.591 39.1254 126.583 38.0354C127.78 37.7629 128.844 37.3542 129.776 36.673C130.707 36.128 131.505 35.1743 132.437 34.3568C133.634 35.4468 134.831 36.4005 136.029 37.4905C134.033 40.2154 131.505 41.8503 128.578 42.6678C123.922 43.894 119.265 43.4853 115.274 40.6241C110.085 36.8092 108.621 31.3594 109.153 25.0921C109.553 20.8685 111.282 17.3261 114.475 14.7374C118.068 11.8762 122.192 11.0587 126.583 11.6037C129.909 12.1487 132.703 13.5112 135.097 15.9636C135.63 16.5086 135.896 17.1898 135.896 18.0073C136.029 20.1872 136.029 22.2309 136.029 24.5471Z" fill="white"/>
<path d="M13.8926 14.3287C4.71243 15.2824 -0.609425 9.56006 0.0558065 0.0228468C3.7811 -0.113399 7.37336 0.295345 10.1673 3.02026C13.4935 6.01767 13.8926 10.105 13.8926 14.3287Z" fill="white"/>
</svg>
